<?xml version="1.0" encoding="UTF-8"?>
<svg id="Layer_1" data-name="Layer 1" xmlns="http://www.w3.org/2000/svg" viewBox="0 0 950 950">
  <defs>
    <style>
      .cls-1 {
        fill: #ee2424;
        fill-rule: evenodd;
      }

      .cls-1, .cls-2, .cls-3 {
        stroke-width: 0px;
      }

      .cls-2 {
        fill: #55a245;
      }

      .cls-3 {
        fill: #fff;
      }
    </style>
  </defs>
  <g id="layer1">
    <path id="rect885" class="cls-1" d="M153.95,303.99h749.57v293.27c-28.25,23.83-62.65,33.08-94.74,33.1H115.09c-31.12-1.21-46.88,1.56-68.61,15.67v-257.07c1.59-76.85,52.4-84.93,107.46-84.96h0Z"/>
    <g id="g963">
      <path id="path921" class="cls-2" d="M803.43,431.5c1.52-3.95-2.19-20.83-6.53-29.69-8.15-16.65-22.42-26.92-39.66-28.53l-8.69-.81.02,5.02c.09,19.57,9.91,38.83,24.62,48.26,9.78,6.27,28.66,9.87,30.24,5.76h0Z"/>
      <path id="path919" class="cls-2" d="M819.72,426.2c6.45-1.14,18.95-9.36,28-18.41,13.9-13.9,22.09-38.77,20.03-60.79q-1.33-14.17-13.2-8.3c-13.25,6.55-28.61,21.68-35.58,35.04-6.38,12.23-9.91,26.41-9.91,39.76,0,12.21.74,15.03,3.69,14.17,1.16-.34,4.29-1,6.96-1.48Z"/>
    </g>
    <path id="path883" class="cls-3" d="M480.01,400.74c1.87-1.38,4.25-4.92,5.29-7.87,5.28-14.95-11.43-28-24.54-19.16-5.26,3.54-7.58,7.77-7.58,13.8s2.32,10.26,7.71,13.92c5.36,3.64,13.67,3.34,19.12-.69ZM829.16,576.97c0-.62-.91-1.88-2.02-2.8-1.11-.92-2.99-3.45-4.19-5.63-1.94-3.55-2.17-10.11-2.17-63.51v-59.56h-16.8c-18.51,0-22.06,1.15-16.65,5.4,1.71,1.34,3.7,4.59,4.43,7.21,1.78,6.4,1.78,102.29,0,108.69-.73,2.62-2.73,5.88-4.46,7.23-1.72,1.35-2.76,2.83-2.32,3.28,1.27,1.27,44.17.96,44.17-.32h0ZM751.9,577.01c0-.6-1.1-2.08-2.44-3.3-4.29-3.89-5.28-12.21-5.26-44.15.02-32.56,1.14-41.93,6.48-54.34,1.56-3.62,3.1-6.58,3.44-6.58s2.08,1.16,3.88,2.58c7.7,6.06,19.03,1.49,20.84-8.41,1.73-9.47-1.9-16.35-9.77-18.52-9.61-2.65-18.69,3.91-25.66,18.57l-4.29,9.01-.05-13.2-.05-13.2h-13.44c-7.39,0-13.74.48-14.11,1.07-.37.59.61,3.63,2.18,6.76,2.76,5.51,2.85,7.17,3.27,54.73.43,49.86-.34,61.85-4.29,66.2-1.06,1.18-1.94,2.53-1.94,3s9.27.86,20.6.86,20.6-.49,20.6-1.09h0ZM492.16,577.28c.45-.45-.59-1.92-2.32-3.28-1.72-1.35-3.73-4.61-4.46-7.23-.82-2.94-1.33-27.08-1.33-63.04v-58.27h-18.04c-14.45,0-18.03.35-18.03,1.77,0,.98.91,2.53,2.02,3.45,5.55,4.61,5.71,6.32,5.71,61.74s-.16,57.13-5.71,61.74c-1.11.92-2.02,2.18-2.02,2.8,0,1.27,42.9,1.58,44.17.32h0ZM414.51,577.33c0-.42-1.13-2.19-2.5-3.94-4.45-5.65-5.36-14.98-4.8-48.87.56-33.56,1.37-39.08,7.49-51.1l2.49-4.88,3.69,2.63c4.39,3.12,12.47,3.46,16.43.69,6.52-4.57,6.88-18.33.62-24.13-4.4-4.08-8.09-4.94-14.11-3.32-7.97,2.15-13.17,8.33-19.85,23.59-1.56,3.56-1.72,2.82-2.06-9.34l-.37-13.2h-13.4c-13.98,0-16.65,1.01-13.08,4.96,4.15,4.59,4.8,14.28,4.41,66.59-.37,50.44-.43,51.51-3.23,56.25l-2.85,4.83h20.56c11.31,0,20.56-.34,20.56-.76h0ZM261.71,573.9c3.99-2.65,7.55-4.81,7.91-4.81s.66,2.17.66,4.83v4.83s16.42-.45,16.42-.45c9.03-.25,16.67-.69,16.97-.98.3-.29-.86-2.98-2.58-5.99l-3.13-5.46v-120.4h-15.7c-8.63,0-16,.49-16.38,1.1s.46,3.33,1.86,6.07c2.39,4.68,2.53,7.77,2.53,52.87v47.9l-3.96,3.33c-2.18,1.83-5.37,3.69-7.09,4.12-4.2,1.05-9.04-2.28-9.92-6.82-.39-1.99-.6-27.23-.49-56.09l.21-52.47h-15.03c-19.12,0-19.98.3-16.19,5.61,2.86,4.01,2.9,4.63,3.53,58.78.61,52.26.76,54.93,3.29,59.23,1.45,2.48,4.64,5.86,7.08,7.51,3.83,2.6,5.68,2.95,13.59,2.56,8.03-.39,10.04-1.04,16.4-5.26h0ZM196.89,477.01c.69-108.57.61-107.31,6.88-112.51,1.17-.97,2.13-2.57,2.13-3.54,0-1.43-3.67-1.77-18.67-1.77s-18.67.33-18.67,1.86c0,1.02.58,2.22,1.3,2.66s2.31,2.65,3.54,4.9c1.99,3.65,2.32,9.82,2.89,55.29.35,28.15.35,51.19,0,51.19-.36,0-9.58-23.61-20.49-52.48-10.91-28.86-20.88-54.94-22.16-57.95l-2.32-5.47h-18.72c-11.81,0-18.72.48-18.72,1.31,0,.72,1.88,4.63,4.19,8.69l4.19,7.38v92.72c0,97.79-.07,99.13-5.84,104.35-1.39,1.26-2.53,2.78-2.53,3.38s8.4,1.09,18.67,1.09c15.1,0,18.67-.34,18.67-1.79,0-.99-.84-2.12-1.86-2.51s-2.91-2.63-4.19-4.97c-2.14-3.92-2.35-9.69-2.7-75.06-.22-42.19.1-70.3.79-69.54.64.7,14.04,35.17,29.79,76.61,15.74,41.43,29.24,76.08,30,77,.86,1.05,3.59,1.53,7.29,1.29l5.91-.38.64-101.73ZM645.19,555.51c-6.74-5.67-9.58-15.55-9.6-33.43-.03-16.53,1.94-26.86,7.35-38.63,5.39-11.73,14.1-19.33,20.29-17.71,2.27.59,2.39,2.79,2.39,43.07v42.44l-3.76,3.76c-4.91,4.91-11.2,5.09-16.67.49ZM699.42,579.89c2.79-.84,2.91-2.56.26-3.57-5.25-2.01-5.74-7.32-5.74-62.61s.38-59.73,5.94-62.84c1.96-1.09,2.05-1.61.61-3.35-1.36-1.64-4.36-2.05-14.75-2.04-15.67.02-18.64.7-19.58,4.44-.68,2.71-1.07,2.79-7.15,1.59-28.83-5.7-53,26.74-53.08,71.21-.06,34.11,12.63,54.48,33.93,54.5,8.06,0,17.99-3.82,23.43-9.03l3.47-3.33.92,3.72c1.88,7.62,5.83,10.99,14.67,12.52,3.47.6,13.39-.11,17.06-1.22h0ZM559.66,579.17c5.42-2.02,9.59-4.93,15.27-10.62,13.51-13.54,18.19-27.91,16.94-52-1.34-25.8-9.3-40.76-38.13-71.7-16.33-17.52-23.94-28.61-26.5-38.61-2.55-9.94-2.45-14.34.47-20.65,3.27-7.09,7.95-11.03,14.09-11.85,13.08-1.76,26.82,12.16,33.69,34.13,1.17,3.76,2.67,6.8,3.32,6.76.69-.04,1.19-11.11,1.19-26.15v-26.08l-5.42-.39c-2.98-.22-6.51.19-7.85.9-1.82.97-4.33.51-10.03-1.83-16.22-6.67-31.57-2.85-42.52,10.58-8.09,9.93-11.05,18.93-11.78,35.92-1.17,27.09,4.22,37.95,35.74,72,6.55,7.08,14.75,16.89,18.22,21.8,14.54,20.59,15.22,44.91,1.64,58.49-8.46,8.67-22.12,6.49-30.39.76-8.94-6.27-14.63-17.31-19.4-37.69-3.16-13.47-4.17-8.1-4.53,23.92-.19,17.17.16,31.23.77,31.23s2.94-.91,5.17-2.02c3.72-1.86,4.68-1.84,11.47.21,13.78,4.4,25.42,7.69,38.59,2.9h0ZM358.44,576.84c7.11-3.44,10.95-7.48,8.53-8.98-.95-.59-3.99-.76-6.76-.39-6.82.92-10.82-2.83-12.52-11.76-.69-3.62-1.09-22.81-.9-42.64.43-43,1.09-45.75,14.43-59.88,2.52-2.67,3.87-5.14,3.31-6.05-.53-.86-4.62-1.71-9.29-1.93l-8.34-.39-.25-22.54c-.14-12.39-.28-22.97-.32-23.5s-1.79-.97-3.89-.97c-3.41,0-3.96.58-5.19,5.47-3.87,15.35-11.89,33.18-20.89,46.44-5.36,7.9-5.6,11.37-.73,10.85l2.94-.31.64,52.8c.58,47.86.87,53.24,3.01,57.55,1.3,2.61,3.75,5.66,5.45,6.78,7.31,4.79,20.19,4.56,30.76-.56h0Z"/>
  </g>
</svg>