<?xml version="1.0" encoding="UTF-8"?>
<svg id="Layer_1" data-name="Layer 1" xmlns="http://www.w3.org/2000/svg" viewBox="0 0 950 950">
  <defs>
    <style>
      .cls-1 {
        fill: #fff;
      }

      .cls-2 {
        fill: #0096d9;
      }

      .cls-3 {
        fill: #f58a1f;
      }

      .cls-4 {
        fill: #918f8f;
      }

      .cls-5 {
        fill: #d72b25;
      }

      .cls-6 {
        fill: #231f20;
      }
    </style>
  </defs>
  <rect class="cls-4" x="331.62" y="448.56" width="10.43" height="10.41"/>
  <rect class="cls-4" x="343.89" y="448.56" width="10.35" height="10.41"/>
  <rect class="cls-4" x="356.08" y="448.56" width="10.42" height="10.41"/>
  <rect class="cls-4" x="368.32" y="448.56" width="10.39" height="10.41"/>
  <rect class="cls-4" x="331.62" y="436.53" width="10.43" height="10.41"/>
  <rect class="cls-4" x="343.89" y="436.53" width="10.35" height="10.41"/>
  <rect class="cls-4" x="356.08" y="436.53" width="10.42" height="10.41"/>
  <rect class="cls-4" x="368.32" y="436.53" width="10.39" height="10.41"/>
  <rect class="cls-4" x="392.77" y="436.53" width="10.41" height="10.41"/>
  <rect class="cls-4" x="331.62" y="424.57" width="10.43" height="10.39"/>
  <rect class="cls-4" x="343.89" y="424.57" width="10.35" height="10.39"/>
  <rect class="cls-4" x="368.32" y="424.57" width="10.39" height="10.39"/>
  <rect class="cls-4" x="380.53" y="424.57" width="10.42" height="10.39"/>
  <rect class="cls-4" x="392.77" y="424.57" width="10.41" height="10.39"/>
  <rect class="cls-4" x="343.89" y="412.55" width="10.35" height="10.4"/>
  <rect class="cls-4" x="356.08" y="412.55" width="10.42" height="10.4"/>
  <rect class="cls-4" x="368.32" y="412.55" width="10.39" height="10.4"/>
  <rect class="cls-4" x="380.53" y="412.55" width="10.42" height="10.4"/>
  <rect class="cls-4" x="404.99" y="412.55" width="10.45" height="10.4"/>
  <rect class="cls-4" x="343.89" y="400.55" width="10.35" height="10.41"/>
  <rect class="cls-4" x="356.08" y="400.55" width="10.42" height="10.41"/>
  <rect class="cls-4" x="368.32" y="400.55" width="10.39" height="10.41"/>
  <rect class="cls-4" x="380.53" y="400.55" width="10.42" height="10.41"/>
  <rect class="cls-4" x="392.77" y="400.55" width="10.41" height="10.41"/>
  <rect class="cls-4" x="404.99" y="400.55" width="10.45" height="10.41"/>
  <rect class="cls-4" x="417.21" y="400.55" width="10.41" height="10.41"/>
  <rect class="cls-4" x="441.71" y="400.55" width="10.41" height="10.41"/>
  <rect class="cls-4" x="368.32" y="388.55" width="10.39" height="10.4"/>
  <rect class="cls-4" x="380.53" y="388.55" width="10.42" height="10.4"/>
  <rect class="cls-4" x="404.99" y="388.55" width="10.45" height="10.4"/>
  <rect class="cls-4" x="429.46" y="388.55" width="10.4" height="10.4"/>
  <rect class="cls-4" x="356.08" y="376.55" width="10.42" height="10.42"/>
  <rect class="cls-4" x="368.32" y="376.55" width="10.39" height="10.42"/>
  <rect class="cls-4" x="380.53" y="376.55" width="10.42" height="10.42"/>
  <rect class="cls-4" x="392.77" y="376.55" width="10.41" height="10.42"/>
  <rect class="cls-4" x="404.99" y="376.55" width="10.45" height="10.42"/>
  <rect class="cls-4" x="429.46" y="376.55" width="10.4" height="10.42"/>
  <rect class="cls-4" x="490.58" y="376.55" width="10.46" height="10.42"/>
  <rect class="cls-4" x="368.32" y="364.54" width="10.39" height="10.41"/>
  <rect class="cls-4" x="392.77" y="364.54" width="10.41" height="10.41"/>
  <rect class="cls-4" x="417.21" y="364.54" width="10.41" height="10.41"/>
  <rect class="cls-4" x="441.71" y="364.54" width="10.41" height="10.41"/>
  <rect class="cls-4" x="404.99" y="352.53" width="10.45" height="10.42"/>
  <rect class="cls-4" x="429.46" y="352.53" width="10.4" height="10.42"/>
  <rect class="cls-4" x="417.21" y="340.55" width="10.41" height="10.41"/>
  <rect class="cls-4" x="441.71" y="340.55" width="10.41" height="10.41"/>
  <rect class="cls-4" x="466.12" y="340.55" width="10.42" height="10.41"/>
  <rect class="cls-4" x="404.99" y="328.52" width="10.45" height="10.42"/>
  <rect class="cls-4" x="466.12" y="316.52" width="10.42" height="10.42"/>
  <rect class="cls-4" x="502.8" y="316.52" width="10.43" height="10.42"/>
  <rect class="cls-4" x="466.12" y="304.52" width="10.42" height="10.43"/>
  <rect class="cls-4" x="466.12" y="292.53" width="10.42" height="10.42"/>
  <rect class="cls-4" x="478.38" y="280.53" width="10.39" height="10.43"/>
  <rect class="cls-6" x="303.08" y="425.42" width="26.62" height="4.99"/>
  <path class="cls-4" d="m329.98,460.98h44.62c-12.41,13.9-41.61,37.43-107.76,60.9-117.3,41.69-231.94-8.36-164.82-103.66,65.63-93.29,169.58-115.28,180.46-117.08,10.84-1.82,28.99-2.95,20.16-.25-8.85,2.75-25.37,9.55-24.43,12.02.89,2.51,11.75-.21,17.83-1.14,6.15-.89,6.15,3.4,2.52,5.24-3.6,1.79-6.54,0-4.31,2.24,2.3,2.28.94,3.85-2.73,5.45-3.59,1.59-13.57.89-16.97,4.09-3.4,3.13,6.32,3.13,13.14.42,6.81-2.7,8.35-3.39,15.87-3.84,7.45-.44.43,4.09,4.06,5.67,3.63,1.58,21.99-2.04,17.22.88-4.75,2.97,9.07,2.97-.47,5.7-9.51,2.71-98.71,12.68-167.09,57.52-68.4,44.83-77.44,137.64,38.95,114.55,84.86-16.84,120.35-55.59,133.38-75.33v26.63h.38Zm-52.23-122.95c-5.89-.66-5.42,1.35-7.05,2.15-2.04,1.01,3.85,1.93,8.41,1.74,4.52-.26,4.52-3.21-1.36-3.9m-4.34-21.02c-4.27-.46-4.06.88-9.72,1.79-5.65.93-8.86,6.78-3.19,6.13,5.68-.7,8.16-.91,13.15-2.98,4.96-2.02-.24-4.95-.24-4.95"/>
  <path class="cls-3" d="m181.2,429.36c0-30.66,24.82-55.48,55.46-55.48s55.5,24.82,55.5,55.48-24.82,55.45-55.5,55.45-55.46-24.82-55.46-55.45"/>
  <path class="cls-1" d="m199.03,405.19c-2.42-5.46.06-11.88,5.52-14.34,5.5-2.41,11.93.04,14.37,5.52,2.47,5.49,0,11.91-5.5,14.35-5.48,2.45-11.91-.05-14.38-5.54"/>
  <path class="cls-4" d="m322.79,300.9c0-2.5-10.64-2.7-12.22-.43-1.57,2.24-7.23,1.36-7.72,3.38-.4,2.07,4.78,1.58,9.3-.19,4.57-1.83,10.64-.26,10.64-2.76"/>
  <path class="cls-4" d="m330.72,307.93c-1.58-1.79-12.01-2.49-15.18-.91-3.19,1.61-7.25,3.21-9.28,3.21s.93,2.48,6.35,2.48,4.75-1.39,10.17-.47c5.44.91,9.5-2.48,7.93-4.31"/>
  <path class="cls-4" d="m315.54,317.43c-5.63,1.37-7,2.04-9.97,2.74-2.94.68-.21,2.93,6.36,1.57,6.57-1.33,8.59-1.8,11.76-2.01,3.2-.25,2.72-3.18-1.14-3.42-3.82-.21-7,1.12-7,1.12"/>
  <path class="cls-4" d="m339.54,315.4c-1.72-2.57-7.03-.9-9.29.46-2.22,1.38-1.8,1.57,2.04,2.26,3.87.69,7.37-1.56,7.25-2.72"/>
  <path class="cls-4" d="m353.58,320.62c-1.41-.68-12.67.91-14.47.46-1.82-.46-4.31,1.8-8.17,1.8s-9.94.24-7.68,2.72c2.27,2.49,12.01,1.15,16.29.22,4.35-.88,8.84-2.93,12.93-2.02,4.05.89,1.68-3.03,1.11-3.18"/>
  <rect class="cls-6" x="31.6" y="425.24" width="136.75" height="5"/>
  <rect class="cls-6" x="234.28" y="502.03" width="4.94" height="136.75"/>
  <rect class="cls-6" x="234.28" y="218.52" width="4.94" height="136.72"/>
  <rect class="cls-6" x="405.11" y="425.42" width="396.23" height="4.99"/>
  <path class="cls-5" d="m800.95,427.91c0-5.49,4.46-9.95,9.98-9.95s9.96,4.47,9.96,9.95-4.44,9.98-9.96,9.98-9.98-4.47-9.98-9.98"/>
  <path class="cls-5" d="m226.79,208.83c0-5.48,4.42-9.95,9.96-9.95s9.98,4.47,9.98,9.95-4.46,10.01-9.98,10.01-9.96-4.49-9.96-10.01"/>
  <path class="cls-6" d="m394.14,604.9c0,10.55-3.2,18.7-9.56,24.47-6.39,5.8-16.08,8.68-29.11,8.68h-49.39v-102.89h49.72c12.71,0,21.91,2.3,27.55,6.92,5.61,4.62,8.46,11.23,8.46,19.87,0,5.61-1.23,9.9-3.64,12.82-2.38,2.94-5.31,5.39-8.74,7.36,4.71,1.94,8.36,4.75,10.89,8.44,2.57,3.65,3.83,8.44,3.83,14.32m-30.32-39.1c0-2.26-.6-4.2-1.88-5.8-1.28-1.56-3.61-2.36-7.06-2.36h-21.46v16.33h21.46c3.34,0,5.68-.74,7-2.25,1.3-1.47,1.94-3.45,1.94-5.92m2.38,39.62c0-3.05-.83-5.46-2.48-7.21-1.68-1.77-4.23-2.64-7.65-2.64h-22.65v19.98h22.47c3.52,0,6.14-.95,7.82-2.85,1.66-1.93,2.48-4.33,2.48-7.27"/>
  <rect class="cls-6" x="405.58" y="535.17" width="29.15" height="102.87"/>
  <path class="cls-6" d="m516.73,638.05l-24.57-33.95c-1.19-1.57-2.5-3.5-4.11-5.8-1.58-2.32-3.14-4.62-4.63-6.91-1.52-2.3-2.94-4.51-4.27-6.58-1.29-2.02-2.34-3.65-3.01-4.82.19,1.17.32,2.8.44,4.92.11,2.13.19,4.42.28,6.92.11,2.49.17,5.07.17,7.71v38.5h-27.34v-102.87h25.13l22.64,30.42c1.18,1.56,2.58,3.5,4.17,5.89,1.63,2.31,3.22,4.67,4.78,7.04,1.57,2.34,3,4.57,4.27,6.6,1.28,2.07,2.21,3.65,2.78,4.69-.19-1.15-.34-2.78-.42-4.91-.1-2.11-.22-4.39-.35-6.9-.06-2.52-.1-5.06-.1-7.72v-35.12h27.33v102.87h-23.21Z"/>
  <path class="cls-6" d="m640.41,614.98c-2.28,5.76-5.49,10.51-9.58,14.17-4.06,3.65-8.82,6.33-14.38,8-5.56,1.65-11.52,2.51-18.01,2.51s-12.46-.86-17.94-2.51c-5.49-1.67-10.23-4.35-14.18-8-3.94-3.66-7.06-8.42-9.31-14.17-2.31-5.77-3.41-12.77-3.41-20.87v-58.92h29.09v58.92c0,6.36,1.31,11.37,3.9,14.98,2.63,3.65,6.67,5.45,12.27,5.45s9.65-1.8,12.12-5.45c2.52-3.61,3.78-8.62,3.78-14.98v-58.92h29.1v58.92c0,8.09-1.15,15.1-3.46,20.87"/>
  <path class="cls-6" d="m739.4,606.46c0,5.87-1.07,10.89-3.17,15.13-2.1,4.2-5.05,7.64-8.84,10.29-3.75,2.61-8.22,4.6-13.41,5.88-5.2,1.26-10.88,1.91-17.06,1.91-8.33,0-16.29-1.22-23.88-3.63-7.59-2.4-14.08-5.34-19.5-8.87l13.84-22.35c1.85,1.28,4.04,2.54,6.55,3.73,2.47,1.25,5.08,2.36,7.79,3.31,2.67.99,5.4,1.76,8.14,2.37,2.75.57,5.29.89,7.65.89,5.07,0,8.63-.5,10.48-1.5,1.92-.95,2.91-2.67,2.91-5.12,0-.96-.29-1.87-.81-2.64-.57-.79-1.52-1.56-2.84-2.3-1.31-.74-3.06-1.47-5.34-2.21-2.26-.71-5.1-1.48-8.53-2.28-6.17-1.44-11.58-3.01-16.15-4.68-4.65-1.67-8.46-3.76-11.46-6.26-3.05-2.49-5.35-5.5-6.87-9.06-1.5-3.51-2.27-7.85-2.27-13.05,0-4.8.96-9.21,2.85-13.23,1.94-4.03,4.65-7.44,8.18-10.29,3.52-2.84,7.76-5.03,12.76-6.61,5.01-1.58,10.58-2.36,16.77-2.36,8.83,0,16.48,1.03,23,3.09,6.51,2.07,12.53,4.99,18,8.81l-13.82,22.34c-4.61-3.12-9.19-5.53-13.81-7.18-4.6-1.68-9.56-2.51-14.85-2.51-4.32,0-7.15.58-8.52,1.75-1.36,1.2-2.04,2.71-2.04,4.58,0,.97.27,1.85.78,2.55.52.75,1.48,1.43,2.7,2.07,1.31.62,3.03,1.29,5.15,1.93,2.15.61,4.93,1.34,8.25,2.12,6.46,1.56,12.08,3.27,16.77,5.13,4.7,1.88,8.56,4.05,11.59,6.61,3.05,2.58,5.31,5.61,6.78,9.13,1.46,3.53,2.2,7.68,2.2,12.51"/>
  <g>
    <path class="cls-2" d="m335.11,751.76c-17.4,0-29.13-11.74-29.13-32.74v-40.46h14.41v40.25c0,11.53,5.56,18.84,14.72,18.84s14.82-7.11,14.82-18.64v-40.46h14.41v40.25c0,20.9-10.91,32.94-29.24,32.94Z"/>
    <path class="cls-2" d="m427.87,750.63l-26.46-39.32c-1.75-2.68-4.12-6.28-5.04-8.13,0,2.67.2,11.73.2,15.75v31.71h-14.2v-72.06h13.79l25.53,38.09c1.75,2.67,4.12,6.28,5.04,8.13,0-2.68-.2-11.74-.2-15.75v-30.47h14.21v72.06h-12.87Z"/>
    <path class="cls-2" d="m460.3,750.63v-72.06h14.41v72.06h-14.41Z"/>
    <path class="cls-2" d="m528.76,750.63h-14l-25.64-72.06h15.96l13.59,41.69c1.34,4.02,2.78,9.27,3.39,11.84.62-2.68,1.96-7.62,3.29-11.84l13.28-41.69h15.75l-25.63,72.06Z"/>
    <path class="cls-2" d="m567.78,750.63v-72.06h50.03v14.1h-35.62v12.46h20.69v14h-20.69v17.4h37.16v14.1h-51.58Z"/>
    <path class="cls-2" d="m676.49,750.63l-12.87-25.94h-14.51v25.94h-14.41v-72.06h33.56c13.59,0,24.81,7.52,24.81,22.86,0,10.81-4.63,17.6-13.79,21.21l13.79,28h-16.58Zm-8.54-58.06h-18.84v18.53h18.84c6.69,0,10.3-3.09,10.3-9.37s-3.91-9.16-10.3-9.16Z"/>
    <path class="cls-2" d="m732.7,751.76c-12.05,0-22.54-5.04-28-13.07l10.4-9.26c5.04,5.87,11.53,8.24,18.43,8.24,8.55,0,12.56-2.37,12.56-7.82,0-4.63-2.47-6.69-16.06-9.78-13.28-3.09-22.55-7.31-22.55-21.52,0-13.08,11.53-21.1,25.74-21.1,11.22,0,19.46,4.22,26.25,11.32l-10.4,10.09c-4.63-4.74-9.78-7.41-16.37-7.41-7.72,0-10.29,3.3-10.29,6.49,0,4.53,3.09,5.97,14.51,8.65,11.43,2.68,24.09,6.59,24.09,22.24,0,13.69-8.65,22.96-28.31,22.96Z"/>
    <path class="cls-2" d="m777.28,750.63v-72.06h14.41v72.06h-14.41Z"/>
    <path class="cls-2" d="m841.72,692.77v57.86h-14.41v-57.86h-20.69v-14.21h55.79v14.21h-20.69Z"/>
    <path class="cls-2" d="m911.01,722.11v28.52h-14.41v-28.21l-27.28-43.86h16.58l10.19,17.09c2.57,4.32,6.48,11.42,7.82,14.1,1.34-2.68,5.15-9.58,7.82-14.1l10.19-17.09h16.37l-27.28,43.55Z"/>
  </g>
  <path class="cls-5" d="m226.88,648.41c0-5.51,4.47-9.97,9.98-9.97s9.95,4.47,9.95,9.97-4.46,9.96-9.95,9.96-9.98-4.47-9.98-9.96"/>
  <path class="cls-5" d="m12.01,427.74c0-5.5,4.43-9.97,9.95-9.97s9.95,4.47,9.95,9.97-4.43,9.96-9.95,9.96-9.95-4.47-9.95-9.96"/>
</svg>