<?xml version="1.0" encoding="UTF-8"?>
<svg id="Layer_1" data-name="Layer 1" xmlns="http://www.w3.org/2000/svg" viewBox="0 0 950 950">
  <defs>
    <style>
      .cls-1 {
        fill: #194a8b;
      }

      .cls-1, .cls-2, .cls-3 {
        fill-rule: evenodd;
      }

      .cls-2 {
        fill: #2d2b6c;
      }

      .cls-4, .cls-3 {
        fill: #2891cf;
      }
    </style>
  </defs>
  <g>
    <path class="cls-4" d="m172.68,800.45l-39.93,38.35-14.95,15.13c14.19,16.19,28.44,32.31,42.75,48.38l14.25,17.59v.88l-9.68-.53-9.85.53c-1.88-2.7-3.87-5.4-5.99-8.09-2.02-2.81-4.07-5.47-6.16-7.96l-38.35-44.86c-.59-.47-1.35-.76-2.29-.88-.47.11-.7.23-.7.35v61.39l-7.74-.53-7.74.53v-120.33l7.74.53,7.74-.53v54.36c.12.47.64.58,1.58.35,1.06-.23,2.07-.7,3.03-1.41.93-.82,2.87-2.64,5.8-5.46,1.06-1.06,2.17-2.11,3.34-3.17l43.29-44.67,7.04.53,6.82-.5Z"/>
    <path id="B" class="cls-4" d="m299.7,859.16c0-7.97-.76-15.01-2.29-21.11-1.53-6.21-4.46-12.08-8.8-17.59-4.34-5.51-9.73-9.73-16.19-12.67-6.33-2.93-13.13-4.4-20.41-4.4-15.36,0-27.5,5.4-36.41,16.19-8.8,10.67-13.19,24.98-13.19,42.93s4.69,30.79,14.08,40.64c8.8,9.15,20.11,13.72,33.95,13.72,16.54,0,29.38-7.15,38.52-21.46,7.15-11.14,10.73-23.22,10.73-36.24h0Zm-49.79,63.49c-19.59,0-35.3-5.63-47.14-16.89-11.73-11.38-17.59-26.51-17.59-45.39s6.27-34.19,18.82-45.92c12.08-11.26,27.5-16.89,46.27-16.89s33.54,4.75,45.74,14.25c13.96,10.91,20.93,26.21,20.93,45.92s-6.22,35.18-18.65,47.14c-12.43,11.87-28.56,17.81-48.38,17.81v-.03Z"/>
    <path class="cls-4" d="m453.98,800.45h3.69c2.46,23.34,3.99,37.65,4.57,42.93,1.88,17.24,3.4,30.67,4.57,40.29,1.26,9.5,2.96,21.87,5.1,37.12l-8.27-.53-8.27.53c-1.06-11.73-2.07-22.93-3.03-33.61-.82-10.67-1.83-21.23-3.03-31.67-1.06-10.44-2.07-18.94-3.03-25.51-7.15,12.9-13.37,24.16-18.65,33.78-6.1,11.26-11.2,20.99-15.31,29.2-4.46,9.03-8.5,17.65-12.14,25.86h-1.89l-9.68-19.88c-4.22-8.8-7.98-16.37-11.26-22.73-3.28-6.45-7.33-14.25-12.14-23.4-4.1-7.62-8.15-15.25-12.14-22.87-2.02,16.77-3.96,33.72-5.8,50.84-1.88,17.13-2.82,30.44-2.82,39.93l-6.16-.53-6.33.53c2.46-15.25,5.69-36.88,9.68-64.91,3.99-28.15,6.4-46.62,7.21-55.42h4.55c6.1,11.96,11.08,21.76,14.95,29.38,4.69,9.03,10.25,19.41,16.67,31.14,7.04,12.78,13.08,23.34,18.12,31.67,16.89-30.73,33.78-61.45,50.66-92.18l.16.05Zm43.47,120.4v-120.33l7.74.53,7.74-.53v120.33l-7.74-.53-7.74.53Zm151.8-120.4v120.33h-5.28l-9.15-10.73-76-84.09h-1.76v94.82l-4.93-.53-4.93.53v-120.33h6.82l83.56,90.6h1.76v-90.6l4.93.53,4.96-.53Zm32.96,120.4v-120.33h62.45l-.53,5.28.53,5.28c-3.52-.71-6.39-1.18-8.62-1.41-2.23-.35-4.63-.53-7.21-.53l-17.59-.35h-13.55v44.12h27.27c2.23,0,5.16-.12,8.8-.35,3.75-.35,6.03-.53,6.82-.53l-.53,4.57.53,4.93c-2.11,0-5.04-.12-8.8-.35-3.75-.35-6.03-.53-6.82-.53h-27.27v60.17l-7.74-.53-7.74.58Z"/>
    <path id="B-2" data-name="B" class="cls-4" d="m876.39,859.16c0-7.97-.76-15.01-2.29-21.11-1.53-6.21-4.46-12.08-8.8-17.59-4.34-5.51-9.73-9.73-16.19-12.67-6.33-2.93-13.13-4.4-20.41-4.4-15.36,0-27.5,5.4-36.41,16.19-8.8,10.67-13.19,24.98-13.19,42.93s4.69,30.79,14.08,40.64c8.8,9.15,20.11,13.72,33.95,13.72,16.54,0,29.38-7.15,38.52-21.46,7.15-11.14,10.73-23.22,10.73-36.24h0Zm-49.79,63.49c-19.59,0-35.3-5.63-47.14-16.89-11.73-11.38-17.59-26.51-17.59-45.39s6.27-34.19,18.82-45.92c12.08-11.26,27.5-16.89,46.27-16.89s33.54,4.75,45.74,14.25c13.96,10.91,20.93,26.21,20.93,45.92s-6.22,35.18-18.65,47.14c-12.43,11.87-28.56,17.81-48.38,17.81v-.03Z"/>
  </g>
  <g>
    <path class="cls-2" d="m497.48,20.86c102.91,0,196.25,42.32,263.53,110.43.01.1.03.19.05.29-31.24-5.75-61.74-8.51-91.79-8.54-97.65-.1-192.92,26.88-274.94,79.51-36.41,23.36-67.91,50.85-95.19,84.35-48.93,60.09-83.42,132.28-84.69,210.55-1.15,70.98,25.33,135.06,80.7,180.03,25.48,20.69,50.8,36.86,84.32,47.92,28.24,9.32,59.01,13.06,88.67,11.8,32.58-1.39,65.25-8.98,91.64-30.47,14.47-11.78,19.57-27.81,18.01-44.14-1.72-18.04-10.5-31.77-26.85-37.54-21.28-7.52-52.64-11.03-67.56,8.41-5.17,6.74-4.65,14.45.43,22.09,1.1,1.65,2.85,4.1,3.34,5.24-4.61,0-9.45-2.97-11.47-4.95-21.12-20.78,2.29-44.29,21.04-52.37,60.19-25.95,179.31,12.59,140.24,94.81-17.47,36.76-62.35,52.51-106.3,58.76-32.07,4.56-63.86,4.57-93.61.14-.32-.05-.65-.05-.99-.04-175.13-29.41-309.3-182.32-309.3-365.58,0-204.18,166.53-370.71,370.71-370.71Z"/>
    <path class="cls-1" d="m801.67,180.13c41.09,58.9,65.55,130.18,66.47,206.96-8.92-9.27-18.52-17.28-28.93-23.36-57.47-33.58-158.96-35.75-220.11-24.91-61.15,10.84-118.12,23.49-171.44,60.08-53.32,36.59-105.17,102-111.09,169.08-4.7,53.3,12.68,87.73,78.88,124,28.03,15.36,68.56,15.2,97.21,1.44,15.87-7.63,29.39-31.25,20.29-46.33-8.19-13.59-36.01-18.2-44.14,3.49-5.24-6.84,3.59-20.53,10.99-22.84,14.48-4.51,30.91-5.34,43.87,2.54,14.7,8.94,28.25,26.36,25.05,43.27-3.86,20.37-22.15,33.01-40.78,42.11-23.85,11.64-52.29,15.18-78.82,14.49-30.67-.81-62.54-8.67-89.38-23.53-33.92-18.79-66.98-43.55-87.92-76.19-21.77-33.95-35.32-75.43-35.17-115.76.31-83.29,37.24-148.67,90.85-209.53,38.86-44.12,77.68-72.97,137.74-102.57,60.05-29.6,150.61-56.28,225.65-56.28,27.78,0,55.96,5.11,82.06,14.65,5.64,2.06,16.2,8.85,28.72,19.2Z"/>
    <path class="cls-3" d="m378.05,655.77c-34.97-40.73-28.53-76.34-11.43-120.95,26.67-69.57,91.48-108.47,158.25-135.54,15.4-6.24,59.37-18.82,96.72-25.48,42.95-7.66,82.66-4.53,125.36,1.68,28.86,4.19,82.55,27.27,104.48,46.18,14.4,12.42,11.01,37.04,7.27,53.24-12.76,55.19-37.91,105.72-72.33,148.51,9.91-61.25-17.13-81.27-66.72-102.36-29.09-12.37-78.74-20.13-112.39-21.13-50.91-1.51-120.12,18.93-147.53,47.75-19.23,20.22-30.7,33.44-34.2,60.87-2.89,22.65,4.56,42.43,24.65,56.59,9.43,6.65,19.73,6.72,30.36,10.69,5.88,2.19,23.09-2.29,29.22-6.98,11.33-8.68,7.62-22.9-2.14-27.08-.45-3.63,9.59-.88,11.98,1.28,22.09,19.95,5.18,34.9-12.04,43.2-18.6,8.97-40.96,10.06-61.07,6.78-36.06-5.87-54.43-20.91-68.45-37.25Z"/>
  </g>
</svg>