<?xml version="1.0" encoding="UTF-8"?>
<svg id="Layer_1" data-name="Layer 1" xmlns="http://www.w3.org/2000/svg" viewBox="0 0 950 950">
  <defs>
    <style>
      .cls-1 {
        fill: none;
        stroke: #202d54;
        stroke-miterlimit: 10;
        stroke-width: 3px;
      }

      .cls-2 {
        stroke-width: 0px;
      }

      .cls-2, .cls-3 {
        fill: #212d54;
      }

      .cls-3 {
        font-family: MS-UIGothic, 'MS UI Gothic';
        font-size: 29.9px;
      }
    </style>
  </defs>
  <path id="path917" class="cls-2" d="M395.68,622.41c-1.62-.81-3.52-2.26-4.24-3.22-.72-.96-5-9.33-9.52-18.61-10.9-22.39-47.92-96-60.51-120.3-18.72-36.15-34.15-65.25-61.44-115.87-4.03-7.47-4.62-8.93-4.62-11.35,0-5.21,4.66-9.21,9.77-8.39,2.56.41,38.31,22.8,88.29,55.28,6.35,4.13,12.83,7.93,14.39,8.45,4.17,1.38,10.39.91,14.32-1.09,4.7-2.38,7.75-5.66,18.56-19.92,44.21-58.32,106.15-134.83,161.21-199.14,40.65-47.48,91.58-104.65,94.59-106.2,2.92-1.5,6.6-.59,8.26,2.06,1.77,2.82,1.09,4.69-7.62,21-72.88,136.48-165.31,330.21-237.12,497.02-3.44,8-6.8,15.33-7.45,16.3-.65.96-2.26,2.5-3.58,3.42-2.02,1.41-3.01,1.7-6.39,1.85-3.45.16-4.4-.02-6.93-1.29h0Z"/>
  <path id="path857" class="cls-2" d="M329.14,864.23c-.67-.8-.66-1.41.03-2.7.74-1.38,34.55-50.85,44.22-64.69l2.86-4.1-21.92-31.83c-14.02-20.36-21.93-32.48-21.95-33.63l-.03-1.8,17.01-.19,17.01-.19,14.05,20.49c7.72,11.27,14.26,20.25,14.51,19.96.26-.29,6.6-9.51,14.09-20.48l13.63-19.94h16.79c16.13,0,16.81.06,17.25,1.43.25.79.21,1.84-.09,2.34-.3.5-10.28,15.07-22.17,32.37l-21.62,31.47,3.59,5.19c14.52,20.99,41.72,60.69,42.83,62.5.99,1.63,1.17,2.57.65,3.53-.65,1.21-1.96,1.31-17.26,1.31h-16.55l-15.41-22.46c-8.48-12.35-15.74-22.44-16.13-22.42-.4.02-7.66,10.13-16.13,22.46l-15.41,22.42h-16.49c-13.45,0-16.65-.19-17.35-1.03h0ZM820.86,840.36l4.88-.46v-19.26c0-14.6-.22-19.39-.9-19.81-1.54-.94-26.78-1.19-34.09-.33-12.39,1.45-19.21,5.33-21.24,12.07-1.5,4.99-1.11,13,.84,17.12,4.17,8.79,10.56,10.86,34.07,11.04,6.36.05,13.76-.12,16.45-.37h0ZM780.56,865.16c-7.21-.79-17.56-3.66-22.37-6.21-2.01-1.06-5.8-4.04-8.41-6.62-7.81-7.69-10.71-15.56-11.29-30.55-.43-11.21.71-17.68,4.43-25.15,3.32-6.66,5.95-9.68,11.81-13.53,11.04-7.25,20.72-9.18,48.44-9.65,18.29-.31,20.51-.47,21.1-1.57.81-1.5-.21-6.36-2.09-10-6.6-12.73-28.4-15.92-54.14-7.91-5.43,1.69-7.8,2.13-8.68,1.61-1.31-.78-4.07-6.07-8.89-17.07-3.72-8.49-4.08-7.9,7.3-11.56,20.36-6.53,42.34-7.85,58.94-3.52,2.39.62,7.39,2.58,11.12,4.34,5.63,2.67,7.78,4.2,12.69,9.08,6.75,6.7,10.16,12.51,12.94,22.06,3.05,10.47,3.37,16.37,3.37,63.04v44.02l-35.24-.09c-19.38-.05-37.84-.38-41.03-.73h0ZM604.68,865.12c-.66-.66-.87-17.27-.87-70.4,0-69.36,0-69.54,1.48-70.33.97-.52,6.11-.71,14.85-.56,10.92.18,13.49.42,14.05,1.3.38.59.69,2.97.7,5.27v4.19s3.42-2.98,3.42-2.98c7.86-6.88,18.82-10.32,32.74-10.26,26.93.1,45.43,14.15,52.86,40.13,1.6,5.6,1.63,6.47,1.89,54.08.2,36.33.05,48.65-.58,49.41-.68.82-3.79,1.02-15.83,1.02-13.59,0-15.09-.12-16.18-1.31-1.09-1.19-1.2-5.38-1.2-45.24,0-29.54-.26-45.17-.81-47.74-2-9.47-8.03-16.78-15.65-18.99-5.45-1.57-16.3-1.51-21.54.13-7.63,2.39-13.42,9.47-15.41,18.85-.54,2.56-.81,18.23-.81,47.86,0,41.76-.07,44.11-1.32,45.24-1.14,1.03-3.36,1.19-16.12,1.19-10.55,0-15.05-.25-15.67-.86h0ZM50.21,865.13c-.68-.68-.88-22.43-.88-97.34,0-86.74.11-96.58,1.14-97.6,1-1,5.23-1.13,35.6-1.13,52.93,0,62.99,1.26,80.01,9.96,5.08,2.6,7.86,4.67,12.68,9.44,10.08,9.97,15.09,21.73,16.76,39.31,2.78,29.37-9.66,52.07-35.58,64.9-3.38,1.67-6.26,3.15-6.4,3.27-.14.13,10.35,14.94,23.31,32.91,24.17,33.52,25.58,35.88,21.94,36.77-.89.22-9.76.3-19.69.19l-18.07-.2-33.51-47.07-33.51-47.07,19.77-.43c20.97-.46,24.13-.91,32.19-4.57,7.86-3.57,13.51-11.04,15.48-20.47,1.31-6.29.48-20.28-1.52-25.56-4.39-11.58-12.65-17.07-28.55-18.98-3.58-.43-14.84-.78-25.02-.78-17.66,0-18.61.07-20.43,1.49-1.05.82-2.31,2.2-2.81,3.05-.7,1.21-.98,19.52-1.26,80.97l-.36,79.41-15.2.19c-11.22.14-15.43-.04-16.08-.68h0ZM531.85,838.29c12.25-3.17,21.22-12.45,25.7-26.57,2.25-7.09,2.77-20.23,1.14-28.43-3.99-20.04-17.72-32.29-36.19-32.29-15.02,0-26.43,7.04-32.83,20.26-4.03,8.33-5.42,15.81-4.97,26.76.56,13.66,4.06,22.51,12.28,31.05,4.36,4.53,10.65,8.23,16.16,9.52,4.51,1.05,14.08.9,18.71-.3h0ZM507.66,867.51c-30.37-6.61-51.83-31.99-54.96-65.01-3.42-36.03,16.72-68.25,48.98-78.36,28.59-8.96,60.2,1.79,76.82,26.13,10.12,14.81,14.81,33.61,13.04,52.22-3.06,32.09-22.07,55.83-51.45,64.25-7.76,2.22-24,2.61-32.43.77h0ZM306,781.49c2.25-2.7-3.57-16.53-9.45-22.47-6.28-6.35-14.13-9.44-23.98-9.46-11.12-.01-19.74,3.22-26.49,9.95-6.26,6.23-12.01,18.36-10.25,21.62.78,1.46,1.24,1.47,35.02,1.47,30.14,0,34.34-.13,35.16-1.12h0ZM259.3,867.85c-16.13-3.05-27.97-9.06-38.34-19.46-17.78-17.82-24.74-47.61-17.54-75.03,6.59-25.1,25.94-44.59,50.13-50.5,9.63-2.35,24.08-2.21,33.78.33,29.69,7.77,48.4,35.5,48.58,72l.05,10.78-50.81.36c-55.04.39-52.77.21-51.83,4.16,2.54,10.71,10.18,20.76,19.33,25.4,7.8,3.95,21.58,5.32,31.88,3.15,6.48-1.36,14.17-4.92,19.84-9.17,2.51-1.88,5.14-3.41,5.84-3.41,1.84,0,16.71,17.57,16.71,19.74,0,3.5-14.06,13.84-24.03,17.66-3.1,1.19-7.82,2.66-10.5,3.27-6.78,1.54-26.51,1.98-33.1.73h0Z"/>
  <ellipse class="cls-1" cx="884.26" cy="738.08" rx="16.4" ry="16.31"/>
  <text class="cls-3" transform="translate(874.87 748.88)"><tspan x="0" y="0">R</tspan></text>
</svg>